<svg width="1440" height="145" viewBox="0 0 1440 145" fill="none" xmlns="http://www.w3.org/2000/svg">
  <!-- First SVG -->

  <g transform="translate(0, 0)">
    <path fill-rule="evenodd" clip-rule="evenodd" d="M1440.79 5.79915L1410.7 17.3974C1380.62 28.9957 1320.45 52.1922 1260.48 52.1922C1200.51 52.1922 1140.75 28.9956 1080.76 31.8952C1020.77 34.7948 960.544 63.7904 900.374 86.9869C840.203 110.183 780.084 127.581 720.219 115.983C660.354 104.384 600.744 63.7904 541.006 37.6943C481.269 11.5982 421.404 -6.53679e-05 361.437 -7.06104e-05C301.471 -7.58529e-05 241.402 11.5982 181.308 26.096C121.214 40.5938 61.0945 57.9912 31.0347 66.6899L0.974928 75.3886L0.363647 144.978L30.347 144.978C60.3304 144.978 120.297 144.978 180.264 144.978C240.231 144.978 300.197 144.978 360.164 144.978C420.131 144.978 480.097 144.978 540.064 144.978C600.031 144.978 659.997 144.978 719.964 144.978C779.931 144.978 839.897 144.978 899.864 144.978C959.831 144.978 1019.8 144.978 1079.76 144.978C1139.73 144.978 1199.7 144.978 1259.66 144.978C1319.63 144.978 1379.6 144.978 1409.58 144.978L1439.56 144.978L1440.79 5.79915Z" fill="url(#paint0_linear_145_205)" fill-opacity="0.91"/>
  </g>

  <g transform="translate(0, 92)">
    <path fill-rule="evenodd" clip-rule="evenodd" d="M1436 2.08012L1406 6.24011C1376 10.4001 1316 18.7201 1256 18.7201C1196 18.7201 1136 10.4001 1076 11.4401C1016 12.4801 956 22.88 896 31.2C836 39.52 776 45.76 716 41.6C656 37.44 596 22.88 536 13.52C476 4.16003 416 3.67138e-05 356 3.14684e-05C296 2.6223e-05 236 4.16001 176 9.35999C116 14.56 56 20.8 26 23.9199L-4 27.0399L-4 51.9999L26 51.9999C56 51.9999 116 51.9999 176 51.9999C236 51.9999 296 51.9999 356 51.9999C416 51.9999 476 51.9999 536 51.9999C596 51.9999 656 51.9999 716 51.9999C776 51.9999 836 51.9999 896 52C956 52 1016 52 1076 52C1136 52 1196 52 1256 52C1316 52 1376 52 1406 52L1436 52L1436 2.08012Z" fill="url(#paint0_linear_145_207)" fill-opacity="0.67"/>
  </g>
   
  <g transform="translate(0, 58)"> 
  <path fill-rule="evenodd" clip-rule="evenodd" d="M1440 3.43988L1410 10.3199C1380 17.1999 1320 30.9599 1260 30.9599C1200 30.9599 1140 17.1999 1080 18.9199C1020 20.6399 960 37.84 900 51.6C840 65.36 780 75.68 720 68.8C660 61.92 600 37.84 540 22.36C480 6.87997 420 -4.05285e-05 360 -3.52831e-05C300 -3.00377e-05 240 6.87999 180 15.48C120 24.08 60 34.4 30 39.5601L-7.18776e-08 44.7201L0 86.0001L30 86.0001C60 86.0001 120 86.0001 180 86.0001C240 86.0001 300 86.0001 360 86.0001C420 86.0001 480 86.0001 540 86.0001C600 86.0001 660 86.0001 720 86.0001C780 86.0001 840 86.0001 900 86C960 86 1020 86 1080 86C1140 86 1200 86 1260 86C1320 86 1380 86 1410 86L1440 86L1440 3.43988Z" fill="url(#paint0_linear_145_208)" fill-opacity="0.9"/>
  </g>
  <defs>
    <linearGradient id="paint0_linear_145_207" x1="-4" y1="25.9999" x2="1436" y2="26.0002" gradientUnits="userSpaceOnUse">
      <stop stop-color="#7C4C38"/>
      <stop offset="0.86" stop-color="#F13333"/>
    </linearGradient>
    <linearGradient id="paint0_linear_145_205" x1="2.53051" y1="72.4695" x2="1441.62" y2="85.1106" gradientUnits="userSpaceOnUse">
      <stop stop-color="white"/>
      <stop offset="0.882109" stop-color="#E8DADA"/>
    </linearGradient>
    <linearGradient id="paint0_linear_145_208" x1="-7.48723e-08" y1="43.0001" x2="1440" y2="43.0001" gradientUnits="userSpaceOnUse">
      <stop offset="1.11389e-05" stop-color="#700C0C"/>
      <stop offset="0.605011" stop-color="#7D4235"/>
    </linearGradient>
  </defs>
</svg>
